<?xml version="1.0" standalone="no"?>
<!DOCTYPE svg PUBLIC "-//W3C//DTD SVG 20010904//EN"
 "http://www.w3.org/TR/2001/REC-SVG-20010904/DTD/svg10.dtd">
<svg version="1.0" xmlns="http://www.w3.org/2000/svg"
 width="700.000000pt" height="700.000000pt" viewBox="0 0 700.000000 700.000000"
 preserveAspectRatio="xMidYMid meet">
<metadata>
Created by potrace 1.11, written by Peter Selinger 2001-2013
</metadata>
<g transform="translate(0.000000,700.000000) scale(0.100000,-0.100000)"
fill="#000000" stroke="none">
<path d="M3155 6979 c-625 -68 -1179 -277 -1683 -634 -624 -444 -1105 -1111
-1321 -1835 -257 -858 -178 -1778 219 -2570 178 -355 372 -623 660 -911 192
-193 323 -300 548 -449 144 -96 525 -302 535 -290 2 3 41 113 86 245 46 132
89 249 96 260 7 11 200 247 429 525 l416 505 0 207 c0 205 0 208 -25 244 -22
32 -25 48 -25 120 l0 84 -40 0 c-47 0 -94 21 -106 47 -5 10 -11 79 -14 154
l-5 136 -85 -33 c-114 -44 -140 -44 -179 3 l-30 36 -246 -106 c-166 -72 -259
-107 -283 -107 -57 0 -95 30 -126 96 -15 33 -37 80 -49 106 l-22 46 -180 -79
c-99 -44 -202 -86 -229 -94 -111 -33 -243 -6 -343 70 -73 55 -90 81 -169 257
-41 92 -68 141 -76 139 -7 -3 -35 -7 -63 -9 -59 -4 -107 22 -139 77 -37 64
-15 163 46 200 13 8 136 63 273 123 227 99 254 109 298 105 83 -7 139 -68 139
-152 0 -54 -31 -109 -73 -130 l-28 -15 35 -82 c19 -46 37 -84 39 -87 4 -3 221
86 267 110 15 8 12 18 -23 96 -21 49 -39 98 -39 111 0 31 23 83 46 104 11 9
102 53 204 98 102 45 211 94 243 108 l57 25 -6 46 c-5 37 -2 51 13 68 10 12
293 161 629 330 l611 308 -16 42 c-14 40 -14 44 4 69 13 16 302 175 828 454
445 235 814 433 820 439 7 7 7 18 -1 36 -7 14 -12 53 -12 86 0 70 23 122 72
165 45 39 360 176 418 182 92 9 179 -38 219 -117 18 -34 246 -558 659 -1511
98 -228 182 -432 186 -452 13 -71 -28 -165 -89 -207 -18 -12 -103 -53 -191
-92 -198 -88 -250 -96 -334 -52 -42 22 -62 41 -86 80 l-30 51 -420 -149 c-230
-82 -629 -224 -886 -315 -461 -165 -468 -167 -493 -150 -15 10 -33 33 -41 53
-8 19 -20 33 -27 31 -7 -3 -78 -29 -159 -59 l-147 -54 -3 -288 -3 -289 -33
-29 c-25 -23 -42 -29 -76 -29 l-44 0 -4 -94 c-3 -81 -6 -98 -25 -118 -22 -24
-23 -30 -23 -235 l0 -211 424 -515 424 -514 108 -312 c60 -171 113 -311 117
-311 26 0 303 112 434 175 379 183 664 385 964 684 299 300 501 585 684 964
230 477 339 963 339 1507 0 464 -77 874 -241 1285 -56 141 -177 387 -235 480
-269 427 -519 713 -858 980 -518 409 -1123 655 -1790 730 -148 16 -577 19
-715 4z m545 -601 c0 -67 56 -125 130 -135 l40 -6 0 -58 0 -59 -32 0 c-68 0
-138 -70 -138 -137 l0 -33 -59 0 -58 0 -7 39 c-10 66 -80 131 -141 131 -24 0
-25 2 -25 60 0 58 1 60 25 60 61 0 129 63 140 130 l7 40 59 0 59 0 0 -32z
m-1667 -978 c9 -71 56 -116 140 -134 25 -6 27 -10 27 -59 l0 -53 -43 -11 c-76
-21 -127 -80 -127 -148 0 -24 -2 -25 -60 -25 l-60 0 0 31 c0 72 -53 130 -132
144 l-38 7 0 54 0 54 41 6 c69 11 129 78 129 144 l0 30 59 0 58 0 6 -40z
m3237 -2865 c0 -69 60 -137 133 -150 l37 -7 0 -53 0 -52 -42 -7 c-57 -9 -115
-67 -124 -124 l-7 -42 -53 0 c-50 0 -54 2 -60 28 -18 84 -58 127 -129 138
l-45 6 0 53 0 53 37 7 c76 14 133 66 133 122 0 45 9 53 66 53 51 0 54 -1 54
-25z m-3567 -765 c10 -74 68 -130 135 -130 l32 0 0 -59 0 -58 -40 -6 c-73 -10
-117 -54 -127 -127 l-6 -40 -58 0 -59 0 0 33 c0 67 -70 137 -137 137 l-33 0 0
60 0 60 33 0 c41 0 92 31 117 72 11 18 20 48 20 66 l0 32 59 0 58 0 6 -40z"/>
<path d="M3245 3533 c-44 -23 -65 -44 -86 -85 -61 -119 30 -258 169 -258 175
0 239 247 86 336 -48 28 -123 32 -169 7z"/>
<path d="M2880 935 c-140 -170 -259 -314 -263 -321 -18 -30 -158 -445 -153
-453 3 -5 16 -11 28 -13 13 -3 66 -17 118 -31 158 -42 515 -106 527 -94 2 2 2
278 1 612 l-3 609 -255 -309z"/>
<path d="M3500 621 l0 -623 138 6 c155 8 344 29 477 52 50 9 91 17 93 19 1 1
-40 122 -91 269 l-93 266 -245 297 c-134 163 -252 306 -261 318 -16 19 -17
-13 -18 -604z"/>
</g>
</svg>
